<svg width="54" height="53" viewBox="0 0 54 53" fill="none" xmlns="http://www.w3.org/2000/svg">
<path d="M18.5677 26.5402L15.635 28.5026V24.5777L18.5677 26.5402ZM25.7559 21.7333V16.2649L16.5832 22.3948L20.6624 25.129L25.7559 21.7333ZM37.288 22.3948L28.0932 16.2649V21.7333L33.1867 25.129L37.288 22.3948ZM16.5832 30.6855L25.7559 36.8154V31.347L20.6624 27.9514L16.5832 30.6855ZM28.0932 31.347V36.8154L37.288 30.6855L33.1867 27.9514L28.0932 31.347ZM26.9246 23.7619L22.7792 26.5402L26.9246 29.3184L31.0699 26.5402L26.9246 23.7619ZM48.9744 26.5402C48.9744 38.6676 39.052 48.59 26.9246 48.59C14.7971 48.59 4.87469 38.6676 4.87469 26.5402C4.87469 14.4127 14.7971 4.4903 26.9246 4.4903C39.052 4.4903 48.9744 14.4127 48.9744 26.5402ZM40.5514 22.3948C40.5514 22.3286 40.5514 22.2845 40.5514 22.2404L40.5293 22.1302L40.5073 22.0199C40.4852 21.9979 40.4852 21.9758 40.4632 21.9317L40.4411 21.8876L40.397 21.7994L40.375 21.7553L40.3309 21.6892L40.2868 21.623L40.2206 21.5569L40.1545 21.5128V21.4687L40.0663 21.4246L40.0442 21.4025L27.5861 13.1118C27.1892 12.8472 26.682 12.8472 26.2851 13.1118L13.8049 21.4025V21.4246L13.6946 21.4687C13.6946 21.4907 13.6946 21.5128 13.6946 21.5128L13.6285 21.5569L13.5623 21.623L13.5403 21.6892L13.4741 21.7553L13.4521 21.7994L13.408 21.8876L13.3859 21.9317L13.3418 22.0199V22.1302H13.3198L13.2977 22.2404C13.2977 22.2845 13.2977 22.3286 13.2977 22.3948V30.6855C13.2977 30.7517 13.2977 30.7958 13.2977 30.8399L13.3198 30.9501H13.3418V31.0604C13.3639 31.0824 13.3639 31.1045 13.3859 31.1486L13.408 31.1927L13.4521 31.2809L13.4741 31.325L13.5182 31.3911L13.5623 31.4573C13.5844 31.4793 13.6064 31.5014 13.6285 31.5234L13.6946 31.5675V31.6116L13.7828 31.6557L13.8049 31.6778L26.2851 39.9906C26.4615 40.1229 26.7041 40.167 26.9246 40.167C27.1451 40.167 27.3876 40.1008 27.5861 39.9906L40.0442 31.6778L40.0663 31.6557L40.1545 31.6116V31.5675L40.2206 31.5234L40.2868 31.4573L40.3309 31.3911L40.375 31.325L40.397 31.2809L40.4411 31.1927L40.4632 31.1486L40.5073 31.0604V30.9501H40.5293L40.5514 30.8399C40.5514 30.7958 40.5514 30.7517 40.5514 30.6855V22.3948ZM38.2141 28.5026V24.5777L35.2815 26.5402L38.2141 28.5026Z" fill="white"/>
</svg>
