<svg width="54" height="53" viewBox="0 0 54 53" fill="none" xmlns="http://www.w3.org/2000/svg">
<path d="M27.309 4.4903C24.4134 4.4903 21.5461 5.06063 18.8709 6.16874C16.1957 7.27685 13.7649 8.90103 11.7174 10.9486C7.58223 15.0837 5.25912 20.6922 5.25912 26.5402C5.25912 36.2862 11.5874 44.5549 20.3412 47.4875C21.4437 47.6639 21.7965 46.9804 21.7965 46.385C21.7965 45.8779 21.7965 44.4888 21.7965 42.6586C15.6887 43.9816 14.3878 39.7039 14.3878 39.7039C13.3735 37.1461 11.9402 36.4626 11.9402 36.4626C9.9337 35.0955 12.0946 35.1396 12.0946 35.1396C14.2996 35.294 15.4682 37.4107 15.4682 37.4107C17.3866 40.7623 20.6279 39.7701 21.8847 39.2409C22.0832 37.8076 22.6565 36.8375 23.2739 36.2862C18.3788 35.735 13.2412 33.8387 13.2412 25.4377C13.2412 22.9901 14.0791 21.0277 15.5123 19.4622C15.2918 18.9109 14.5201 16.6177 15.7328 13.641C15.7328 13.641 17.585 13.0456 21.7965 15.8901C23.5385 15.405 25.4348 15.1624 27.309 15.1624C29.1832 15.1624 31.0795 15.405 32.8215 15.8901C37.033 13.0456 38.8852 13.641 38.8852 13.641C40.0979 16.6177 39.3262 18.9109 39.1057 19.4622C40.5389 21.0277 41.3768 22.9901 41.3768 25.4377C41.3768 33.8607 36.2171 35.7129 31.3 36.2642C32.0938 36.9477 32.8215 38.2927 32.8215 40.3434C32.8215 43.2981 32.8215 45.6794 32.8215 46.385C32.8215 46.9804 33.1743 47.686 34.2988 47.4875C43.0526 44.5329 49.3589 36.2862 49.3589 26.5402C49.3589 23.6445 48.7885 20.7773 47.6804 18.102C46.5723 15.4268 44.9481 12.9961 42.9006 10.9486C40.8531 8.90103 38.4223 7.27685 35.7471 6.16874C33.0719 5.06063 30.2046 4.4903 27.309 4.4903V4.4903Z" fill="white"/>
</svg>
