<svg width="53" height="53" viewBox="0 0 53 53" fill="none" xmlns="http://www.w3.org/2000/svg">
<path d="M17.2792 4.4903H35.8011C42.857 4.4903 48.59 10.2233 48.59 17.2792V35.8011C48.59 39.1929 47.2426 42.4459 44.8442 44.8442C42.4458 47.2426 39.1929 48.59 35.8011 48.59H17.2792C10.2232 48.59 4.49027 42.8571 4.49027 35.8011V17.2792C4.49027 13.8874 5.83767 10.6345 8.23606 8.23609C10.6344 5.8377 13.8874 4.4903 17.2792 4.4903M16.8382 8.90027C14.7329 8.90027 12.7139 9.73659 11.2252 11.2252C9.73656 12.7139 8.90024 14.7329 8.90024 16.8382V36.2421C8.90024 40.63 12.4503 44.1801 16.8382 44.1801H36.2421C38.3474 44.1801 40.3664 43.3437 41.8551 41.8551C43.3437 40.3664 44.18 38.3474 44.18 36.2421V16.8382C44.18 12.4503 40.63 8.90027 36.2421 8.90027H16.8382ZM38.1163 12.2078C38.8473 12.2078 39.5484 12.4981 40.0653 13.015C40.5822 13.5319 40.8725 14.233 40.8725 14.964C40.8725 15.695 40.5822 16.396 40.0653 16.9129C39.5484 17.4298 38.8473 17.7202 38.1163 17.7202C37.3853 17.7202 36.6843 17.4298 36.1674 16.9129C35.6505 16.396 35.3601 15.695 35.3601 14.964C35.3601 14.233 35.6505 13.5319 36.1674 13.015C36.6843 12.4981 37.3853 12.2078 38.1163 12.2078ZM26.5401 15.5152C29.4641 15.5152 32.2684 16.6768 34.3359 18.7444C36.4035 20.8119 37.5651 23.6162 37.5651 26.5402C37.5651 29.4642 36.4035 32.2684 34.3359 34.336C32.2684 36.4035 29.4641 37.5651 26.5401 37.5651C23.6161 37.5651 20.8119 36.4035 18.7443 34.336C16.6768 32.2684 15.5152 29.4642 15.5152 26.5402C15.5152 23.6162 16.6768 20.8119 18.7443 18.7444C20.8119 16.6768 23.6161 15.5152 26.5401 15.5152M26.5401 19.9252C24.7857 19.9252 23.1032 20.6221 21.8627 21.8627C20.6221 23.1032 19.9252 24.7858 19.9252 26.5402C19.9252 28.2946 20.6221 29.9771 21.8627 31.2176C23.1032 32.4582 24.7857 33.1551 26.5401 33.1551C28.2945 33.1551 29.9771 32.4582 31.2176 31.2176C32.4582 29.9771 33.1551 28.2946 33.1551 26.5402C33.1551 24.7858 32.4582 23.1032 31.2176 21.8627C29.9771 20.6221 28.2945 19.9252 26.5401 19.9252Z" fill="white"/>
</svg>
