<svg width="88" height="87" viewBox="0 0 88 87" fill="none" xmlns="http://www.w3.org/2000/svg">
<path d="M69.3826 66.9261C68.2641 63.4844 65.0375 60.9462 61.2087 60.9462H56.9066V48.04C56.9066 46.899 56.4533 45.8047 55.6465 44.9979C54.8397 44.1911 53.7455 43.7379 52.6045 43.7379H26.792V35.1337H35.3962C36.5371 35.1337 37.6314 34.6805 38.4382 33.8737C39.245 33.0669 39.6982 31.9726 39.6982 30.8316V22.2275H48.3024C50.5844 22.2275 52.7729 21.321 54.3865 19.7074C56.0001 18.0938 56.9066 15.9053 56.9066 13.6233V11.8594C69.5117 16.9359 78.417 29.2829 78.417 43.7379C78.417 52.6862 74.9753 60.8171 69.3826 66.9261ZM39.6982 77.8534C22.705 75.7454 9.58366 61.2904 9.58366 43.7379C9.58366 41.0706 9.92783 38.4893 10.4871 36.0371L31.0941 56.6441V60.9462C31.0941 63.2282 32.0006 65.4167 33.6142 67.0303C35.2278 68.6439 37.4163 69.5504 39.6982 69.5504V77.8534ZM44.0003 0.717041C38.3508 0.717041 32.7565 1.82981 27.537 3.99181C22.3174 6.15381 17.5749 9.3227 13.58 13.3176C5.51203 21.3855 0.979492 32.328 0.979492 43.7379C0.979492 55.1477 5.51203 66.0902 13.58 74.1582C17.5749 78.1531 22.3174 81.3219 27.537 83.4839C32.7565 85.6459 38.3508 86.7587 44.0003 86.7587C55.4102 86.7587 66.3527 82.2262 74.4207 74.1582C82.4886 66.0902 87.0212 55.1477 87.0212 43.7379C87.0212 38.0883 85.9084 32.494 83.7464 27.2745C81.5844 22.055 78.4155 17.3124 74.4207 13.3176C70.4258 9.3227 65.6832 6.15381 60.4637 3.99181C55.2442 1.82981 49.6499 0.717041 44.0003 0.717041V0.717041Z" fill="white"/>
</svg>
