<svg width="118" height="119" viewBox="0 0 118 119" fill="none" xmlns="http://www.w3.org/2000/svg">
<path d="M84.3826 82.9261C83.2641 79.4844 80.0375 76.9462 76.2087 76.9462H71.9066V64.04C71.9066 62.899 71.4533 61.8047 70.6465 60.9979C69.8397 60.1911 68.7455 59.7379 67.6045 59.7379H41.792V51.1337H50.3962C51.5371 51.1337 52.6314 50.6805 53.4382 49.8737C54.245 49.0669 54.6982 47.9726 54.6982 46.8316V38.2275H63.3024C65.5844 38.2275 67.7729 37.321 69.3865 35.7074C71.0001 34.0938 71.9066 31.9053 71.9066 29.6233V27.8594C84.5117 32.9359 93.417 45.2829 93.417 59.7379C93.417 68.6862 89.9753 76.8171 84.3826 82.9261ZM54.6982 93.8534C37.705 91.7454 24.5837 77.2904 24.5837 59.7379C24.5837 57.0706 24.9278 54.4893 25.4871 52.0371L46.0941 72.6441V76.9462C46.0941 79.2282 47.0006 81.4167 48.6142 83.0303C50.2278 84.6439 52.4163 85.5504 54.6982 85.5504V93.8534ZM59.0003 16.717C53.3507 16.717 47.7565 17.8298 42.537 19.9918C37.3174 22.1538 32.5749 25.3227 28.58 29.3176C20.512 37.3855 15.9795 48.328 15.9795 59.7379C15.9795 71.1477 20.512 82.0902 28.58 90.1582C32.5749 94.1531 37.3174 97.322 42.537 99.4839C47.7565 101.646 53.3507 102.759 59.0003 102.759C70.4102 102.759 81.3527 98.2262 89.4207 90.1582C97.4886 82.0902 102.021 71.1477 102.021 59.7379C102.021 54.0883 100.908 48.494 98.7464 43.2745C96.5844 38.055 93.4155 33.3124 89.4207 29.3176C85.4258 25.3227 80.6832 22.1538 75.4637 19.9918C70.2442 17.8298 64.6499 16.717 59.0003 16.717Z" fill="#505050"/>
</svg>
